<?xml version="1.0" encoding="utf-8"?>
<!-- Generator: Adobe Illustrator 16.0.0, SVG Export Plug-In . SVG Version: 6.00 Build 0)  -->
<!DOCTYPE svg PUBLIC "-//W3C//DTD SVG 1.1//EN" "http://www.w3.org/Graphics/SVG/1.1/DTD/svg11.dtd">
<svg version="1.1" xmlns="http://www.w3.org/2000/svg" xmlns:xlink="http://www.w3.org/1999/xlink" x="0px" y="0px"
	 width="150.082px" height="141.999px" viewBox="0 0 150.082 141.999" enable-background="new 0 0 150.082 141.999"
	 xml:space="preserve">
<g id="Layer_5">
	<rect x="0.083" fill="#153242" width="149.999" height="153.667"/>
</g>
<g id="Layer_2">
	<path fill="#153242" stroke="#22AF97" stroke-width="9" stroke-miterlimit="10" d="M24.817,108.998"/>
	<path fill="#153242" stroke="#22AF97" stroke-width="9" stroke-miterlimit="10" d="M28.29,113.197"/>
	<path fill="#153242" stroke="#22AF97" stroke-width="9" stroke-miterlimit="10" d="M120.582,113.564
		c-11.402,12.432-27.781,20.226-45.979,20.226c-18.377,0-34.898-7.947-46.313-20.593"/>
	<g id="Layer_4">
	</g>
</g>
<g id="Layer_6">
	<path fill="none" stroke="#FFFFFF" stroke-width="9" stroke-miterlimit="10" d="M24.817,108.998
		c-7.902-10.452-12.589-23.471-12.589-37.584c0-34.449,27.926-62.375,62.375-62.375c34.449,0,62.375,27.926,62.375,62.375
		c0,14.114-4.688,27.133-12.59,37.585"/>
</g>
<g id="Layer_1">
	<path fill="#22AF97" d="M74.129,29.522c-17.87,0-32.359,14.49-32.359,32.36c0,6.6,1.98,12.73,5.38,17.85l24.089,39.341
		c0,0,2.76,4.92,5.781,0l24.189-39.5l1.09-1.771c2.66-4.699,4.18-10.13,4.18-15.92C106.479,44.012,91.988,29.522,74.129,29.522z
		 M76.898,61.393l-0.129-0.06c0-0.88-0.5-1.7-1.361-2.07c-0.85-0.38-1.799-0.19-2.449,0.41l-0.09-0.04l6.439-9.24L76.898,61.393z"/>
	<path fill="#FFFFFF" d="M74.448,41.847c-11.351,0-20.56,9.2-20.56,20.54c0,11.363,9.209,20.563,20.56,20.563
		c11.342,0,20.535-9.2,20.535-20.563C94.983,51.046,85.79,41.847,74.448,41.847z"/>
</g>
</svg>
